<svg xmlns="http://www.w3.org/2000/svg" width="40" height="40" viewBox="0 0 40 40" fill="none">
  <circle cx="3.62589" cy="3.67204" r="3.62589" fill="#FEA372"/>
  <ellipse cx="3.62589" cy="11.649" rx="3.62589" ry="3.55997" fill="#FEA372" fill-opacity="0.1"/>
  <circle cx="3.62589" cy="19.6259" r="3.62589" fill="#FEA372" fill-opacity="0.1"/>
  <ellipse cx="3.62589" cy="27.6029" rx="3.62589" ry="3.55997" fill="#FEA372" fill-opacity="0.1"/>
  <circle cx="3.62589" cy="35.5799" r="3.62589" fill="#FEA372"/>
  <ellipse cx="11.7348" cy="3.67204" rx="3.55997" ry="3.62589" fill="#FEA372"/>
  <ellipse cx="11.7348" cy="19.6259" rx="3.55997" ry="3.62589" fill="#FEA372" fill-opacity="0.1"/>
  <circle cx="11.7348" cy="11.649" r="3.55997" fill="#FEA372"/>
  <circle cx="11.7348" cy="27.6029" r="3.55997" fill="#FEA372"/>
  <ellipse cx="11.7348" cy="35.5799" rx="3.55997" ry="3.62589" fill="#FEA372"/>
  <circle cx="19.8437" cy="19.6259" r="3.62589" fill="#FEA372"/>
  <circle cx="19.8437" cy="3.67204" r="3.62589" fill="#FEA372" fill-opacity="0.1"/>
  <ellipse cx="19.8437" cy="11.649" rx="3.62589" ry="3.55997" fill="#FEA372"/>
  <ellipse cx="27.9525" cy="19.6259" rx="3.55997" ry="3.62589" fill="#FEA372"/>
  <ellipse cx="19.8437" cy="27.6029" rx="3.62589" ry="3.55997" fill="#FEA372"/>
  <circle cx="19.8437" cy="35.5799" r="3.62589" fill="#FEA372" fill-opacity="0.1"/>
  <ellipse cx="27.9525" cy="3.67204" rx="3.55997" ry="3.62589" fill="#FEA372" fill-opacity="0.1"/>
  <circle cx="36.0614" cy="19.6259" r="3.62589" fill="#FEA372" fill-opacity="0.1"/>
  <circle cx="27.9525" cy="11.649" r="3.55997" fill="#FEA372" fill-opacity="0.1"/>
  <circle cx="27.9525" cy="27.6029" r="3.55997" fill="#FEA372" fill-opacity="0.1"/>
  <ellipse cx="27.9525" cy="35.5799" rx="3.55997" ry="3.62589" fill="#FEA372" fill-opacity="0.1"/>
  <circle cx="36.0614" cy="3.67204" r="3.62589" fill="#FEA372" fill-opacity="0.1"/>
  <ellipse cx="36.0614" cy="11.649" rx="3.62589" ry="3.55997" fill="#FEA372" fill-opacity="0.1"/>
  <ellipse cx="36.0614" cy="27.6029" rx="3.62589" ry="3.55997" fill="#FEA372" fill-opacity="0.1"/>
  <circle cx="36.0614" cy="35.5799" r="3.62589" fill="#FEA372" fill-opacity="0.1"/>
</svg>
