<svg width="73" height="58" viewBox="0 0 73 58" fill="none" xmlns="http://www.w3.org/2000/svg">
<path fill-rule="evenodd" clip-rule="evenodd" d="M36.3525 15.2256H36.3524C34.2924 16.8423 32.6273 18.9065 31.4831 21.2618C30.3388 23.6172 29.7454 26.2021 29.7478 28.8208C29.7454 31.4394 30.3388 34.0243 31.4831 36.3797C32.6274 38.7351 34.2925 40.7993 36.3524 42.416C38.4105 40.7976 40.0744 38.7331 41.2185 36.3781C42.3625 34.0231 42.957 31.439 42.957 28.8208C42.957 26.2025 42.3625 23.6185 41.2185 21.2634C40.0744 18.9084 38.4106 16.8439 36.3525 15.2256Z" fill="#EFEFEF"/>
<path d="M29.7474 28.8207C29.745 26.2021 30.3384 23.6172 31.4826 21.2618C32.6269 18.9064 34.2921 16.8422 36.352 15.2254C33.8011 13.2203 30.7374 11.9733 27.5112 11.6271C24.2851 11.2808 21.0266 11.8492 18.1081 13.2673C15.1897 14.6854 12.7292 16.896 11.0077 19.6464C9.2863 22.3968 8.37341 25.576 8.37341 28.8207C8.37341 32.0654 9.2863 35.2447 11.0077 37.9951C12.7292 40.7455 15.1897 42.9561 18.1081 44.3742C21.0266 45.7923 24.2851 46.3607 27.5112 46.0144C30.7374 45.6681 33.8011 44.4212 36.352 42.416C34.2921 40.7993 32.6269 38.7351 31.4827 36.3797C30.3384 34.0242 29.745 31.4394 29.7474 28.8207Z" fill="#EFEFEF" fill-opacity="0.7"/>
<path d="M64.3298 28.8207C64.3299 32.0654 63.4172 35.2446 61.6958 37.995C59.9744 40.7454 57.514 42.956 54.5956 44.3741C51.6773 45.7922 48.4188 46.3606 45.1927 46.0144C41.9666 45.6681 38.903 44.4212 36.3521 42.416C38.4102 40.7976 40.0741 38.7331 41.2182 36.3781C42.3622 34.023 42.9567 31.439 42.9567 28.8207C42.9567 26.2025 42.3622 23.6184 41.2182 21.2634C40.0741 18.9084 38.4102 16.8438 36.3521 15.2254C38.903 13.2203 41.9666 11.9733 45.1927 11.6271C48.4188 11.2808 51.6773 11.8492 54.5956 13.2673C57.514 14.6855 59.9744 16.896 61.6958 19.6465C63.4172 22.3969 64.3299 25.5761 64.3298 28.8207Z" fill="#EFEFEF" fill-opacity="0.6"/>
<path d="M62.6802 39.5364V38.9798H62.9047V38.8663H62.333V38.9798H62.5576V39.5364H62.6802ZM63.79 39.5364V38.8652H63.6148L63.4133 39.3269L63.2117 38.8652H63.0363V39.5364H63.1601V39.0301L63.3491 39.4666H63.4774L63.6664 39.029V39.5364H63.79Z" fill="#EFEFEF"/>
</svg>
